<svg width="20" height="20" viewBox="0 0 20 20" fill="none" xmlns="http://www.w3.org/2000/svg">
<path d="M10 0L15 1.33975L18.6603 5L20 10L18.6603 15L15 18.6603L10 20L5 18.6603L1.33975 15L0 10L1.33975 5L5 1.33975L10 0Z" fill="#EF80EE"/>
<path d="M10 2L14 3.0718L16.9282 6L18 10L16.9282 14L14 16.9282L10 18L6 16.9282L3.0718 14L2 10L3.0718 6L6 3.0718L10 2Z" fill="#FF7F50"/>
<path d="M10 4L13 4.80385L15.1962 7L16 10L15.1962 13L13 15.1962L10 16L7 15.1962L4.80385 13L4 10L4.80385 7L7 4.80385L10 4Z" fill="#CD5C5A"/>
<path d="M10 6L12 6.5359L13.4641 8L14 10L13.4641 12L12 13.4641L10 14L8 13.4641L6.5359 12L6 10L6.5359 8L8 6.5359L10 6Z" fill="#3BB371"/>
<path d="M10 8L11 8.26795L11.7321 9L12 10L11.7321 11L11 11.7321L10 12L9 11.7321L8.26795 11L8 10L8.26795 9L9 8.26795L10 8Z" fill="#1D90FF"/>
<path fill-rule="evenodd" clip-rule="evenodd" d="M10 10H20L18.6602 5L15 1.33974L10 0V10Z" fill="white" fill-opacity="0.3"/>
<path fill-rule="evenodd" clip-rule="evenodd" d="M10 10L-8.74228e-07 10L1.33974 15L5 18.6603L10 20L10 10Z" fill="white" fill-opacity="0.3"/>
</svg>
