<svg width="14" height="20" viewBox="0 0 14 20" xmlns="http://www.w3.org/2000/svg">
<path fill-rule="evenodd" clip-rule="evenodd" d="M10.6977 5.11629C10.6977 3.06903 9.04432 1.40794 7 1.39543V6.10352e-05C9.81495 0.0125837 12.093 2.2984 12.093 5.11629V7.48842C13.1545 7.70389 13.9535 8.64238 13.9535 9.76748V15.814C13.9535 18.1259 12.0793 20 9.76744 20H4.18605C1.87416 20 0 18.1259 0 15.814V9.76748C0 8.48309 1.0412 7.44189 2.32558 7.44189H10.6977V5.11629ZM2.32558 8.83724H11.6279C12.1417 8.83724 12.5581 9.25372 12.5581 9.76748V15.814C12.5581 17.3552 11.3087 18.6047 9.76744 18.6047H4.18605C2.64479 18.6047 1.39535 17.3552 1.39535 15.814V9.76748C1.39535 9.25372 1.81183 8.83724 2.32558 8.83724ZM8.37209 12.5581C8.37209 13.0746 8.09149 13.5255 7.67443 13.7668V16.0465C7.67443 16.4318 7.36207 16.7442 6.97676 16.7442C6.59144 16.7442 6.27908 16.4318 6.27908 16.0465V13.7668C5.862 13.5256 5.58139 13.0746 5.58139 12.5581C5.58139 11.7875 6.20611 11.1628 6.97674 11.1628C7.74737 11.1628 8.37209 11.7875 8.37209 12.5581Z" />
</svg>
