<svg width="14" height="20" viewBox="0 0 14 20" xmlns="http://www.w3.org/2000/svg">
<path fill-rule="evenodd" clip-rule="evenodd" d="M12.093 7.48838C13.1545 7.70385 13.9535 8.64235 13.9535 9.76744V15.814C13.9535 18.1258 12.0793 20 9.76744 20H4.18605C1.87416 20 0 18.1258 0 15.814V9.76744C0 8.64235 0.798958 7.70386 1.86047 7.48838V5.11628C1.86047 2.29064 4.1511 0 6.97674 0C9.80239 0 12.093 2.29064 12.093 5.11628V7.48838ZM10.6977 7.44186V5.11628C10.6977 3.06127 9.03176 1.39535 6.97674 1.39535C4.92173 1.39535 3.25581 3.06127 3.25581 5.11628V7.44186H10.6977ZM1.39535 9.76744C1.39535 9.25369 1.81183 8.83721 2.32558 8.83721H11.6279C12.1417 8.83721 12.5581 9.25369 12.5581 9.76744V15.814C12.5581 17.3552 11.3087 18.6047 9.76744 18.6047H4.18605C2.64479 18.6047 1.39535 17.3552 1.39535 15.814V9.76744ZM8.37209 12.5581C8.37209 13.0746 8.09149 13.5256 7.67442 13.7668V16.0465C7.67442 16.4318 7.36206 16.7442 6.97674 16.7442C6.59143 16.7442 6.27907 16.4318 6.27907 16.0465V13.7668C5.862 13.5256 5.5814 13.0746 5.5814 12.5581C5.5814 11.7875 6.20611 11.1628 6.97674 11.1628C7.74737 11.1628 8.37209 11.7875 8.37209 12.5581Z" />
</svg>
